<!-- Generator: Adobe Illustrator 24.1.0, SVG Export Plug-In  -->
<svg version="1.1" xmlns="http://www.w3.org/2000/svg" xmlns:xlink="http://www.w3.org/1999/xlink" x="0px" y="0px"
	 width="122.65px" height="105.21px" viewBox="0 0 122.65 105.21" style="enable-background:new 0 0 122.65 105.21;"
	 xml:space="preserve">
<style type="text/css">
	.st0{fill:#61dafb;stroke:#ffffff;stroke-miterlimit:10;}
	.st1{fill:#61dafb;stroke:#61dafb;stroke-miterlimit:10;}
	.st2{fill-rule:evenodd;clip-rule:evenodd;fill:#231F20;}
	.st3{fill:#61dafb;}
	.st4{fill:none;stroke:#ffffff;stroke-miterlimit:10;}
	.st5{stroke:#61dafb;stroke-miterlimit:10;}
	.st6{fill:#ffffff;stroke:#ffffff;stroke-miterlimit:10;}
</style>
<defs>
</defs>
<path class="st0" d="M0,56.91"/>
<path class="st0" d="M112.01,93.19"/>
<path class="st1" d="M35.31,7.35C32.28,10.66,12.05,33.39,17.65,60c0.71,3.36,2.55,11.63,9.29,19.55
	c6.49,7.63,13.97,10.71,18.87,12.73c0.92,0.38,7.7,3.1,16.26,3.1c3.86,0,5.8-1.03,7.22-1.99c3.45-2.34,4.66-6.13,5.05-7.65
	c0,0,0.07-0.27,0.12-0.52c1.44-6.77-10-19.36-7.46-24.18c1.7-3.24,8.19-0.13,11.71-4.33c3.86-4.62,0.05-13.16,1.74-13.74
	c1.73-0.59,5.36,8.38,7.74,7.74c1.39-0.37,1.94-3.92,1.55-6.77c-0.77-5.57-5.13-8.5-4.45-9.48c0.43-0.63,2.78-0.24,10.48,3.62
	c-4.72-9.13-5.62-12.39-4.86-12.91c1.39-0.95,8.36,7.35,9.59,6.4c1.12-0.86-3.82-8.13-2.52-9.29c0.8-0.71,4.1,1.64,5.61,2.9
	c1.58,1.31,2.67,2.63,3.34,3.55c1.97,3.5,3.18,6.67,3.94,9.07c0.81,2.56,2.37,8.28,2.19,15.73c-0.04,1.74-0.21,4.72-0.93,8.35
	c-2.82,14.21-10.75,24.55-14.77,27.89c0,0,0,0,0,0c-2.61,2.55-15.82,14.98-36.51,14.96c-21.96-0.02-35.58-14.05-37.9-16.53
	C20.72,85.8,8.26,72.08,8.76,51.23c0.37-15.52,7.72-26.24,10.13-29.5C24.62,14,31.27,9.61,35.31,7.35z"/>
<path class="st2" d="M67.22,23.45"/>
<path class="st2" d="M72.3,48.39"/>
<path class="st3" d="M25.72,29.62c1.77-4.54,5.72-12.7,13.94-19.3c3.03-2.43,8.75-6.81,17.41-8.25c8.82-1.46,15.72,0.96,20.5,2.64
	c9,3.16,15.36,8.2,19.31,12.03c-2.24-1.22-4.65-2.2-5.61-1.34c-0.85,0.77-0.07,2.54-0.77,2.95c-1.12,0.65-3.54-3.47-5.16-2.95
	c-2.03,0.66-1.08,8.09-2.18,8.28c-1.16,0.21-2.94-8.94-4.79-8.82c-1.57,0.1-1.86,6.77-3.69,6.9c-1.42,0.1-1.79-3.92-3.87-4.42
	c-3.09-0.74-4.63,7.6-10.52,10.07c-7.6,3.19-14.52-6.74-24.63-4.48C30.97,24,27.68,27.22,25.72,29.62z"/>
<g>
	<g>
		<path class="st4" d="M33.33,7.35"/>
	</g>
</g>
<g>
	<g>
		<path class="st4" d="M11.65,37.94"/>
	</g>
</g>
<path class="st0" d="M83.17,23.92"/>
<path class="st0" d="M20.94,0"/>
<path class="st5" d="M78.62,50.32"/>
<path class="st5" d="M119.26,14.52"/>
<path class="st5" d="M112.88,81.63"/>
<path class="st5" d="M122.65,72.05"/>
<path class="st5" d="M122.65,38.28"/>
<path class="st2" d="M67.79,83.43"/>
<path class="st3" d="M67.79,83.64c-1.65-1.88-3.89-4.77-5.83-8.69c-2.49-5.04-5.3-10.74-3.38-15.35c2.87-6.9,15.08-8.27,14.71-9.68
	c-0.2-0.77-3.67,0.1-4.45-1.35c-0.78-1.46,2.26-3.36,4.45-8.32c0.65-1.48,1.94-4.48,1.74-8.32c-0.14-2.68-0.95-4.8-1.58-6.1
	c-0.99,0.83-2.9,2.43-4.7,3.94c-5.47,4.59-6.83,5.74-8.96,5.79c-1.4,0.04-2.83-0.59-4.84-1.38c-1.26-0.5-2.55-0.93-3.79-1.47
	c-0.64-0.28-1.36-0.61-2.3-0.51c-0.72,0.08-1.28,0.39-1.63,0.63c-0.58,0.35-1.15,0.71-1.73,1.06c-0.85-0.93-2.28-2.26-4.39-3.28
	c-2.98-1.45-5.72-1.51-7.11-1.44c0.64,2.68,1.27,5.36,1.91,8.04c-0.98-0.28-2.03-0.53-3.16-0.74c-4.17-0.75-7.88-0.55-10.79-0.09
	c0.03,0.2,0.09,0.52,0.17,0.92c0.39,1.88,1.46,6.77,5.38,9.96c0.19,0.15,0.44,0.35,0.75,0.57c-2.26,3.22-5.42,8.88-4.99,15.72
	c1.08,17.38,24.38,27.35,24.9,26.71c0.35-0.43-9.28-5.75-11.35-16.26c-0.31-1.56-1.19-6.47,1.2-11.39c0.56-1.16,1.98-3.7,9.91-9.02
	c8.86-5.94,11.99-6.04,16.55-10.49c3.44-3.36,5.39-6.94,6.49-9.38c-0.02,1.44-0.22,3.64-1.23,6.04c-0.93,2.23-2.2,3.77-3.65,5.34
	c-3.66,3.93-6.22,5.5-8.75,7.68c-2.29,1.97-7.13,6.13-8.93,11.74c-2.13,6.65,0.69,13.16,2.44,16.41c-0.19-1.88-0.28-4.2-0.01-6.85
	c0.31-3.09,1.01-5.68,1.7-7.66c-0.05,1.81,0.16,4.15,1.19,6.61C57.16,81.24,66.56,83.38,67.79,83.64z"/>
<path class="st6" d="M51.4,39.68c-0.25-0.29-2.05-2.35-3.96-1.81c-0.28,0.08-0.66,0.24-1.49,1.02c-0.4,0.38-3.63,3.38-3.01,4.51
	c0.52,0.93,3.59,0.39,5.77-1C50.07,41.52,50.92,40.43,51.4,39.68z"/>
<path class="st6" d="M24.31,38.59c1.37,0.24,3.39,0.64,5.79,1.3c3.72,1.03,6.66,2.24,6.54,2.68c-0.13,0.46-2.97-0.62-4.94,0.89
	c-1.22,0.93-1.61,2.48-1.75,3.59c-0.83-0.53-1.84-1.3-2.79-2.41C25.23,42.38,24.57,39.95,24.31,38.59z"/>
<path class="st0" d="M61.72,52.85"/>
</svg>
